<svg xmlns="http://www.w3.org/2000/svg" width="800" height="320" viewBox="0 0 800 320">
<rect width="100%" height="100%" fill="white"/><text x="30" y="40" font-size="28" font-family="Arial" font-weight="700">Clock Tree Synthesis</text>
<circle cx="400" cy="80" r="24" fill="#fde68a" stroke="#a16207" stroke-width="2"/><text x="380" y="86" font-size="20">CLK</text>
<line x1="400" y1="104" x2="280" y2="160" stroke="#111" stroke-width="3"/><line x1="400" y1="104" x2="520" y2="160" stroke="#111" stroke-width="3"/>
<line x1="280" y1="160" x2="220" y2="230" stroke="#111" stroke-width="3"/><line x1="280" y1="160" x2="340" y2="230" stroke="#111" stroke-width="3"/>
<line x1="520" y1="160" x2="460" y2="230" stroke="#111" stroke-width="3"/><line x1="520" y1="160" x2="580" y2="230" stroke="#111" stroke-width="3"/>
<rect x="185" y="230" width="70" height="40" fill="#dcfce7" stroke="#166534"/><rect x="305" y="230" width="70" height="40" fill="#dcfce7" stroke="#166534"/><rect x="425" y="230" width="70" height="40" fill="#dcfce7" stroke="#166534"/><rect x="545" y="230" width="70" height="40" fill="#dcfce7" stroke="#166534"/>
<text x="212" y="255" font-size="18">FF</text><text x="332" y="255" font-size="18">FF</text><text x="452" y="255" font-size="18">FF</text><text x="572" y="255" font-size="18">FF</text>
<text x="40" y="300" font-size="18">Goal: balance insertion delays so skew between sinks stays controlled.</text>
</svg>