<svg xmlns="http://www.w3.org/2000/svg" width="800" height="320" viewBox="0 0 800 320">
<rect width="100%" height="100%" fill="white"/><text x="30" y="40" font-size="28" font-family="Arial" font-weight="700">Setup / Hold Timing</text>
<line x1="60" y1="100" x2="740" y2="100" stroke="#111" stroke-width="2"/><text x="20" y="105" font-size="18">CLK</text>
<line x1="100" y1="70" x2="100" y2="130" stroke="#2563eb" stroke-width="4"/><line x1="240" y1="70" x2="240" y2="130" stroke="#2563eb" stroke-width="4"/><line x1="380" y1="70" x2="380" y2="130" stroke="#2563eb" stroke-width="4"/><line x1="520" y1="70" x2="520" y2="130" stroke="#2563eb" stroke-width="4"/>
<text x="20" y="195" font-size="18">DATA</text><polyline fill="none" stroke="#111" stroke-width="3" points="60,210 170,210 170,160 310,160 310,210 450,210 450,160 620,160 620,210 740,210"/>
<rect x="68" y="135" width="24" height="90" fill="#dcfce7" opacity="0.7"/><rect x="520" y="135" width="24" height="90" fill="#fecaca" opacity="0.7"/>
<text x="60" y="255" font-size="18" fill="#166534">Setup window before edge</text><text x="505" y="255" font-size="18" fill="#991b1b">Hold window after edge</text>
</svg>